# xmcd CD database file
#
# Track frame offsets:
#	150
#	13040
#	27570
#	43305
#	73840
#	93287
#	120062
#	151850
#	181220
#	209750
#	237465
#	265745
#	289647
#	311697
#
# Disc length: 4500 seconds
#
# Revision: 3
# Processed by: cddbd v1.5.2PL0 Copyright (c) Steve Scherf et al.
# Submitted via: CDex 1.70beta2
#
DISCID=c311920e
DTITLE=Horace Silver - Retrospective CD01
DYEAR=1999
DGENRE=Jazz
TTITLE0=Safari
TTITLE1=Ecaroh
TTITLE2=Opus de Funk
TTITLE3=Doodlin'
TTITLE4=The Preacher
TTITLE5=Cool Eyes
TTITLE6=Senior Blues
TTITLE7=Home Cookin'
TTITLE8=Soulville
TTITLE9=The Outlaw
TTITLE10=Senoir Blues (vocal version)
TTITLE11=Swingin' the Samba
TTITLE12=Cookin' at the Continental
TTITLE13=Juicy Luicy
EXTD=YEAR: 1999
EXTT0=
EXTT1=
EXTT2=
EXTT3=
EXTT4=
EXTT5=
EXTT6=
EXTT7=
EXTT8=
EXTT9=
EXTT10=
EXTT11=
EXTT12=
EXTT13=
PLAYORDER=
